<svg width="38" height="35" viewBox="0 0 38 35" fill="none" xmlns="http://www.w3.org/2000/svg">
<path d="M31.6663 29.2702H6.33301C4.7588 29.2685 3.24955 28.6424 2.13641 27.5293C1.02328 26.4161 0.397184 24.9069 0.395508 23.3327V15.416C0.397184 13.8418 1.02328 12.3326 2.13641 11.2194C3.24955 10.1063 4.7588 9.48019 6.33301 9.47852H8.83467C9.14962 9.47852 9.45166 9.60363 9.67436 9.82633C9.89706 10.049 10.0222 10.3511 10.0222 10.666C10.0222 10.981 9.89706 11.283 9.67436 11.5057C9.45166 11.7284 9.14962 11.8535 8.83467 11.8535H6.33301C5.38843 11.8544 4.48278 12.23 3.81487 12.8979C3.14695 13.5658 2.77135 14.4714 2.77051 15.416V23.3327C2.77135 24.2773 3.14695 25.1829 3.81487 25.8508C4.48278 26.5187 5.38843 26.8943 6.33301 26.8952H31.6663C32.6108 26.8939 33.5162 26.5182 34.184 25.8504C34.8518 25.1825 35.2276 24.2771 35.2288 23.3327V15.416C35.2276 14.4716 34.8518 13.5662 34.184 12.8983C33.5162 12.2305 32.6108 11.8548 31.6663 11.8535H29.1647C28.8497 11.8535 28.5477 11.7284 28.325 11.5057C28.1023 11.283 27.9772 10.981 27.9772 10.666C27.9772 10.3511 28.1023 10.049 28.325 9.82633C28.5477 9.60363 28.8497 9.47852 29.1647 9.47852H31.6663C33.2404 9.48061 34.7494 10.1068 35.8625 11.2199C36.9755 12.3329 37.6017 13.8419 37.6038 15.416V23.3327C37.6017 24.9068 36.9755 26.4158 35.8625 27.5288C34.7494 28.6419 33.2404 29.2681 31.6663 29.2702Z" fill="#160042"/>
<path d="M18.9997 23.7288C16.7293 23.7288 14.5099 23.0556 12.6222 21.7943C10.7345 20.5329 9.26314 18.7401 8.39431 16.6426C7.52548 14.545 7.29816 12.2369 7.74108 10.0102C8.18401 7.78347 9.27729 5.73807 10.8827 4.13268C12.4881 2.52729 14.5335 1.43401 16.7602 0.991082C18.9869 0.548156 21.295 0.775482 23.3926 1.64431C25.4901 2.51314 27.2829 3.98446 28.5443 5.8722C29.8056 7.75994 30.4788 9.97932 30.4788 12.2497C30.4755 15.2931 29.265 18.2109 27.113 20.363C24.9609 22.515 22.0431 23.7255 18.9997 23.7288ZM18.9997 3.14551C17.199 3.14551 15.4388 3.67946 13.9417 4.67984C12.4445 5.68022 11.2776 7.1021 10.5885 8.76567C9.89945 10.4292 9.71916 12.2598 10.0704 14.0258C10.4217 15.7919 11.2888 17.4141 12.5621 18.6873C13.8353 19.9605 15.4575 20.8276 17.2235 21.1789C18.9896 21.5302 20.8201 21.3499 22.4837 20.6608C24.1473 19.9718 25.5691 18.8049 26.5695 17.3077C27.5699 15.8105 28.1038 14.0503 28.1038 12.2497C28.1009 9.83601 27.1408 7.52203 25.4341 5.8153C23.7273 4.10857 21.4134 3.14845 18.9997 3.14551Z" fill="#160042"/>
<path d="M18.9997 16.6038C18.1385 16.6038 17.2967 16.3485 16.5806 15.87C15.8646 15.3916 15.3065 14.7116 14.977 13.9159C14.6474 13.1203 14.5612 12.2448 14.7292 11.4002C14.8972 10.5556 15.3119 9.77976 15.9208 9.17081C16.5298 8.56187 17.3056 8.14718 18.1502 7.97917C18.9948 7.81117 19.8703 7.89739 20.6659 8.22695C21.4616 8.55651 22.1416 9.11459 22.62 9.83063C23.0985 10.5467 23.3538 11.3885 23.3538 12.2497C23.353 13.4042 22.894 14.5112 22.0776 15.3276C21.2612 16.144 20.1542 16.603 18.9997 16.6038ZM18.9997 10.2705C18.6082 10.2705 18.2256 10.3866 17.9001 10.6041C17.5746 10.8215 17.321 11.1306 17.1712 11.4923C17.0214 11.8539 16.9822 12.2519 17.0585 12.6358C17.1349 13.0197 17.3234 13.3724 17.6002 13.6492C17.877 13.9259 18.2296 14.1144 18.6136 14.1908C18.9975 14.2672 19.3954 14.228 19.7571 14.0782C20.1187 13.9284 20.4278 13.6747 20.6453 13.3492C20.8628 13.0238 20.9788 12.6411 20.9788 12.2497C20.978 11.725 20.7692 11.2221 20.3982 10.8511C20.0272 10.4801 19.5243 10.2713 18.9997 10.2705Z" fill="#160042"/>
<path d="M7.91595 34.0208C7.68123 34.0206 7.45185 33.9509 7.25676 33.8204C7.06166 33.6899 6.90962 33.5045 6.81983 33.2876C6.73003 33.0708 6.70652 32.8322 6.75225 32.602C6.79799 32.3717 6.91092 32.1602 7.07678 31.9942L11.8268 27.2442C11.9355 27.1275 12.0666 27.0339 12.2123 26.969C12.3579 26.9041 12.5152 26.8692 12.6746 26.8664C12.8341 26.8636 12.9924 26.8929 13.1403 26.9526C13.2882 27.0124 13.4225 27.1013 13.5353 27.214C13.648 27.3268 13.7369 27.4611 13.7966 27.609C13.8564 27.7568 13.8857 27.9152 13.8829 28.0747C13.8801 28.2341 13.8452 28.3914 13.7803 28.537C13.7154 28.6827 13.6218 28.8138 13.5051 28.9225L8.75512 33.6725C8.64526 33.7832 8.51452 33.871 8.37047 33.9308C8.22641 33.9906 8.07192 34.0212 7.91595 34.0208Z" fill="#160042"/>
<path d="M30.0833 34.0208C29.9274 34.0212 29.7729 33.9906 29.6288 33.9308C29.4848 33.871 29.354 33.7832 29.2442 33.6725L24.4942 28.9225C24.3775 28.8138 24.2839 28.6827 24.219 28.537C24.1541 28.3914 24.1192 28.2341 24.1164 28.0747C24.1136 27.9152 24.1429 27.7568 24.2026 27.609C24.2624 27.4611 24.3513 27.3268 24.464 27.214C24.5768 27.1013 24.7111 27.0124 24.859 26.9526C25.0068 26.8929 25.1652 26.8636 25.3247 26.8664C25.4841 26.8692 25.6414 26.9041 25.787 26.969C25.9327 27.0339 26.0638 27.1275 26.1725 27.2442L30.9225 31.9942C31.0884 32.1602 31.2013 32.3717 31.247 32.602C31.2928 32.8322 31.2692 33.0708 31.1795 33.2876C31.0897 33.5045 30.9376 33.6899 30.7425 33.8204C30.5474 33.9509 30.318 34.0206 30.0833 34.0208Z" fill="#160042"/>
</svg>
