<svg width="44" height="44" viewBox="0 0 44 44" fill="none" xmlns="http://www.w3.org/2000/svg">
<path d="M20.1304 26.4666L10.5411 21.5709C10.2208 21.4073 9.83989 21.4224 9.53395 21.6101C9.22802 21.7971 9.04102 22.1306 9.04102 22.4894V32.2822C9.04102 32.6411 9.22733 32.9745 9.53395 33.1615C9.69895 33.2619 9.88527 33.3134 10.0723 33.3134C10.2325 33.3134 10.3933 33.2756 10.5411 33.2007L20.1304 28.3036C20.4755 28.1269 20.6928 27.7729 20.6928 27.3851C20.6928 26.9974 20.4755 26.6426 20.1304 26.4666ZM11.1028 30.5978V24.1738L17.3935 27.3851L11.1028 30.5978Z" fill="#160042"/>
<path d="M42.7627 19.2584C42.4774 19.0666 42.1165 19.0308 41.7975 19.1601L33.6437 22.4965H28.1252V21.1105C28.1252 18.991 26.4339 17.2633 24.3302 17.1966C24.8836 16.4115 25.2109 15.4565 25.2109 14.4253C25.2109 11.7633 23.0452 9.59766 20.3832 9.59766C17.7212 9.59766 15.5556 11.7633 15.5556 14.4253C15.5556 15.4538 15.8815 16.406 16.4322 17.1904H12.5794C13.6416 16.045 14.2968 14.5167 14.2968 12.8358C14.2968 9.29722 11.4176 6.41797 7.87969 6.41797C4.34113 6.41797 1.46187 9.29722 1.46187 12.8358C1.46187 14.6302 2.20437 16.2533 3.39581 17.4193C1.87506 17.959 0.78125 19.4083 0.78125 21.1112V33.6615C0.78125 35.8237 2.53987 37.5823 4.70206 37.5823H24.2051C26.3672 37.5823 28.1252 35.823 28.1252 33.6615V32.2769H33.6431L41.7975 35.614C41.924 35.6649 42.056 35.6903 42.188 35.6903C42.3901 35.6903 42.5902 35.6312 42.7627 35.515C43.0481 35.3239 43.2192 35.0028 43.2192 34.6591V20.115C43.2192 19.7713 43.0481 19.4502 42.7627 19.2584ZM17.6174 14.4253C17.6174 12.9004 18.8584 11.6602 20.3826 11.6602C21.9067 11.6602 23.1477 12.9011 23.1477 14.4253C23.1477 15.9495 21.9067 17.1904 20.3826 17.1904C18.8584 17.1904 17.6174 15.9502 17.6174 14.4253ZM7.879 8.48047C10.2804 8.48047 12.2336 10.4343 12.2336 12.8358C12.2336 15.2372 10.2797 17.1904 7.879 17.1904C5.47756 17.1904 3.52369 15.2365 3.52369 12.8358C3.52369 10.4343 5.47756 8.48047 7.879 8.48047ZM26.062 33.6615C26.062 34.6859 25.2287 35.5198 24.2044 35.5198H4.70137C3.677 35.5198 2.84306 34.6859 2.84306 33.6615V21.1112C2.84306 20.0868 3.67631 19.2529 4.70137 19.2529H24.2044C25.2287 19.2529 26.062 20.0862 26.062 21.1112V23.5285V31.2463V33.6615ZM28.1245 24.5597H32.8146V30.2151H28.1245V24.5597ZM41.1567 33.1232L34.8771 30.554V24.2208L41.1567 21.6516V33.1232Z" fill="#160042"/>
</svg>
