<svg width="26" height="26" viewBox="0 0 26 26" fill="none" xmlns="http://www.w3.org/2000/svg">
<g opacity="0.45">
<path d="M20.1472 5.8344C20.0376 5.72477 19.8936 5.66992 19.7496 5.66992C19.6056 5.66992 19.4616 5.72471 19.352 5.83435C19.1327 6.05362 19.1327 6.41041 19.352 6.62964C19.5713 6.84901 19.928 6.84891 20.1472 6.62964C20.2534 6.5234 20.3119 6.38218 20.3119 6.23197C20.312 6.08186 20.2535 5.94064 20.1472 5.8344Z" fill="url(#paint0_linear_2923_507)"/>
<path d="M10.8374 14.0849C10.6852 13.9327 10.5414 13.859 10.4059 13.8635C10.2705 13.8681 10.1358 13.9373 10.0019 14.0712L9.5498 14.5233L10.3991 15.3725L10.8511 14.9205C10.985 14.7866 11.0542 14.6519 11.0589 14.5164C11.0634 14.381 10.9897 14.2372 10.8374 14.0849Z" fill="url(#paint1_linear_2923_507)"/>
<path d="M25.9622 10.0366L24.7235 3.18495C24.5487 2.21823 23.7818 1.45128 22.8151 1.27649L15.9634 0.0377894C15.1998 -0.100285 14.4168 0.144887 13.8683 0.693374L0.693417 13.8683C0.246289 14.3154 0 14.9099 0 15.5422C0 16.1746 0.246238 16.7691 0.693417 17.2162L8.78387 25.3066C9.231 25.7538 9.8255 26 10.4578 26C11.0902 26 11.6847 25.7538 12.1318 25.3066L25.3066 12.1317C25.8551 11.5832 26.1002 10.7999 25.9622 10.0366ZM9.75268 19.6395C9.72068 19.7476 9.65604 19.8503 9.55869 19.9477C9.46119 20.0452 9.35856 20.1098 9.2505 20.1417C9.14244 20.1737 9.05352 20.1546 8.98339 20.0846L6.08409 17.1853C6.01412 17.1153 5.99045 17.0309 6.0133 16.932C6.03605 16.833 6.09014 16.741 6.1754 16.6557L7.75977 15.0713C7.82975 15.0013 7.91353 14.9785 8.01083 15.0027C8.10833 15.0271 8.19801 15.0804 8.28023 15.1627C8.36848 15.251 8.42409 15.3446 8.44694 15.4434C8.46969 15.5424 8.4476 15.6253 8.38067 15.6923L7.19808 16.8748L7.96975 17.6465L8.65921 16.9571C8.72608 16.8902 8.80601 16.865 8.89889 16.8817C8.99172 16.8985 9.07622 16.945 9.15224 17.021C9.22227 17.091 9.2664 17.1717 9.28468 17.263C9.30286 17.3543 9.27706 17.435 9.20708 17.505L8.51763 18.1944L9.6956 19.3724C9.76573 19.4425 9.78467 19.5315 9.75268 19.6395ZM13.6337 15.69C13.617 15.8651 13.5553 16.0059 13.4487 16.1124C13.3421 16.219 13.222 16.2509 13.088 16.2083L11.248 15.6193L10.9467 15.9207L12.047 17.021C12.1171 17.0911 12.136 17.1801 12.1041 17.2882C12.0721 17.3963 12.0074 17.499 11.9101 17.5963C11.8126 17.6938 11.7099 17.7584 11.6019 17.7903C11.4938 17.8224 11.4049 17.8033 11.3348 17.7332L8.43094 14.8294C8.3731 14.7715 8.3435 14.7009 8.34192 14.617C8.34045 14.5334 8.37168 14.4595 8.43562 14.3956L9.38076 13.4505C10.1295 12.7017 10.8297 12.6529 11.4811 13.3043C11.9559 13.7792 12.0806 14.2724 11.8554 14.7836L13.4215 15.2357C13.4581 15.2418 13.493 15.2616 13.5265 15.2951C13.6147 15.3835 13.6504 15.515 13.6337 15.69ZM16.1563 13.3501L14.5309 14.9755C14.4457 15.0607 14.3537 15.1147 14.2546 15.1376C14.1557 15.1604 14.0714 15.1368 14.0013 15.0667L11.102 12.1674C11.032 12.0975 11.0083 12.0131 11.0312 11.9141C11.054 11.8152 11.108 11.7231 11.1933 11.6378L12.8187 10.0124C12.8887 9.94245 12.9725 9.9196 13.0698 9.94388C13.1673 9.96825 13.257 10.0215 13.3392 10.1038C13.4275 10.1921 13.4831 10.2857 13.5059 10.3846C13.5287 10.4836 13.5066 10.5665 13.4396 10.6334L12.216 11.8571L12.9876 12.6287L13.6726 11.9438C13.7395 11.8769 13.8194 11.8517 13.9123 11.8684C14.0051 11.8852 14.0896 11.9317 14.1657 12.0077C14.2357 12.0777 14.2798 12.1584 14.298 12.2497C14.3162 12.341 14.2904 12.4217 14.2205 12.4917L13.5355 13.1767L14.3117 13.9528L15.5353 12.7291C15.6022 12.6622 15.6852 12.6402 15.7842 12.6629C15.8831 12.6858 15.9766 12.7413 16.0649 12.8296C16.147 12.9117 16.2004 13.0016 16.2248 13.099C16.2492 13.1964 16.2263 13.28 16.1563 13.3501ZM18.6172 10.8891L16.9917 12.5146C16.9065 12.5999 16.8144 12.6539 16.7154 12.6767C16.6165 12.6996 16.5322 12.676 16.4621 12.6059L13.5628 9.70658C13.4928 9.6366 13.4691 9.5522 13.492 9.45328C13.5148 9.35431 13.5688 9.26229 13.6541 9.17698L15.2795 7.55157C15.3495 7.4816 15.4333 7.45875 15.5306 7.48302C15.628 7.50745 15.7177 7.56066 15.8 7.64293C15.8882 7.73124 15.9438 7.82483 15.9667 7.9237C15.9894 8.02272 15.9673 8.1056 15.9004 8.17253L14.6767 9.3962L15.4484 10.1679L16.1333 9.48293C16.2002 9.41606 16.2801 9.39087 16.373 9.40758C16.4658 9.42433 16.5503 9.47085 16.6264 9.54687C16.6964 9.6169 16.7405 9.69759 16.7588 9.78884C16.777 9.88015 16.7512 9.96089 16.6812 10.0309L15.9963 10.7158L16.7724 11.4919L17.9961 10.2683C18.063 10.2014 18.146 10.1793 18.2449 10.2021C18.3439 10.2249 18.4374 10.2805 18.5257 10.3688C18.6078 10.4509 18.6612 10.5408 18.6856 10.6381C18.7102 10.7355 18.6873 10.8191 18.6172 10.8891ZM21.2251 7.70554C20.8182 8.1124 20.2837 8.31583 19.7493 8.31583C19.2148 8.31583 18.6804 8.1124 18.2735 7.70549C17.4597 6.89172 17.4597 5.56766 18.2735 4.75389C19.0872 3.94012 20.4113 3.94007 21.2251 4.75389C21.6193 5.1481 21.8364 5.67221 21.8364 6.22969C21.8364 6.78717 21.6193 7.31128 21.2251 7.70554Z" fill="url(#paint2_linear_2923_507)"/>
</g>
<defs>
<linearGradient id="paint0_linear_2923_507" x1="18.9345" y1="6.54121" x2="20.5366" y2="6.39482" gradientUnits="userSpaceOnUse">
<stop offset="0.0361276" stop-color="#FAEC60"/>
<stop offset="0.159651" stop-color="#E5A34B"/>
<stop offset="0.269837" stop-color="#EE6E4D"/>
<stop offset="0.42316" stop-color="#F44380"/>
<stop offset="0.55979" stop-color="#BE3DB3"/>
<stop offset="0.745252" stop-color="#7746E6"/>
<stop offset="0.888441" stop-color="#5A71F1"/>
<stop offset="1" stop-color="#439EFF"/>
</linearGradient>
<linearGradient id="paint1_linear_2923_507" x1="9.21022" y1="15.033" x2="11.3606" y2="14.8365" gradientUnits="userSpaceOnUse">
<stop offset="0.0361276" stop-color="#FAEC60"/>
<stop offset="0.159651" stop-color="#E5A34B"/>
<stop offset="0.269837" stop-color="#EE6E4D"/>
<stop offset="0.42316" stop-color="#F44380"/>
<stop offset="0.55979" stop-color="#BE3DB3"/>
<stop offset="0.745252" stop-color="#7746E6"/>
<stop offset="0.888441" stop-color="#5A71F1"/>
<stop offset="1" stop-color="#439EFF"/>
</linearGradient>
<linearGradient id="paint2_linear_2923_507" x1="-5.84993" y1="20.1508" x2="31.1943" y2="16.7663" gradientUnits="userSpaceOnUse">
<stop offset="0.0361276" stop-color="#FAEC60"/>
<stop offset="0.159651" stop-color="#E5A34B"/>
<stop offset="0.269837" stop-color="#EE6E4D"/>
<stop offset="0.42316" stop-color="#F44380"/>
<stop offset="0.55979" stop-color="#BE3DB3"/>
<stop offset="0.745252" stop-color="#7746E6"/>
<stop offset="0.888441" stop-color="#5A71F1"/>
<stop offset="1" stop-color="#439EFF"/>
</linearGradient>
</defs>
</svg>
