<svg width="29" height="24" viewBox="0 0 29 24" fill="none" xmlns="http://www.w3.org/2000/svg">
<g opacity="0.5">
<path d="M21.5292 16.8678C21.3105 15.3822 20.5666 14.0241 19.4324 13.04C18.2981 12.0559 16.8487 11.5109 15.3471 11.5039H13.9476C12.4459 11.5109 10.9965 12.0559 9.86228 13.04C8.72805 14.0241 7.98413 15.3822 7.76549 16.8678L7.09467 21.5583C7.07324 21.7099 7.0874 21.8645 7.13603 22.0097C7.18466 22.1549 7.26642 22.2868 7.37484 22.3949C7.6379 22.658 9.25182 23.9996 14.6486 23.9996C20.0455 23.9996 21.6554 22.6632 21.9224 22.3949C22.0309 22.2868 22.1126 22.1549 22.1613 22.0097C22.2099 21.8645 22.224 21.7099 22.2026 21.5583L21.5292 16.8678Z" fill="url(#paint0_linear_2923_523)"/>
<path d="M8.80672 12.2275C7.53549 13.3994 6.70836 14.9747 6.46542 16.6865L5.97874 20.0538C2.0722 20.0274 0.888398 18.6069 0.691097 18.3175C0.614832 18.2124 0.560407 18.093 0.531038 17.9665C0.501669 17.84 0.497951 17.7089 0.520104 17.5809L0.809477 15.9499C0.960244 15.0975 1.31433 14.294 1.84172 13.6076C2.3691 12.9212 3.05423 12.372 3.83902 12.0067C4.62381 11.6414 5.4851 11.4708 6.34988 11.5092C7.21467 11.5476 8.05743 11.794 8.80672 12.2275Z" fill="url(#paint1_linear_2923_523)"/>
<path d="M28.7729 17.5809C28.7951 17.7089 28.7914 17.84 28.762 17.9665C28.7326 18.093 28.6782 18.2124 28.6019 18.3175C28.4046 18.6069 27.2208 20.0274 23.3143 20.0538L22.8276 16.6865C22.5847 14.9747 21.7576 13.3994 20.4863 12.2275C21.2356 11.794 22.0784 11.5476 22.9432 11.5092C23.8079 11.4708 24.6692 11.6414 25.454 12.0067C26.2388 12.372 26.9239 12.9212 27.4513 13.6076C27.9787 14.294 28.3328 15.0975 28.4836 15.9499L28.7729 17.5809Z" fill="url(#paint2_linear_2923_523)"/>
<path d="M9.03084 9.33304C8.69974 9.80261 8.26019 10.1853 7.74953 10.4487C7.23888 10.712 6.6722 10.8482 6.09764 10.8457C5.52449 10.8457 4.95955 10.7095 4.44937 10.4483C3.93918 10.1871 3.49836 9.80846 3.16324 9.3435C2.82811 8.87854 2.60827 8.34059 2.52184 7.774C2.4354 7.20741 2.48485 6.62839 2.66609 6.08465C2.84734 5.54091 3.1552 5.04803 3.5643 4.64662C3.9734 4.24521 4.47204 3.94675 5.01912 3.77586C5.5662 3.60497 6.14605 3.56652 6.7109 3.66369C7.27575 3.76087 7.80943 3.99087 8.26794 4.33476C8.13606 4.85051 8.06977 5.38083 8.07064 5.91317C8.07165 7.11952 8.40378 8.30246 9.03084 9.33304Z" fill="url(#paint3_linear_2923_523)"/>
<path d="M26.8131 7.2285C26.8134 7.70361 26.7201 8.17413 26.5384 8.61314C26.3568 9.05216 26.0903 9.45105 25.7544 9.787C25.4184 10.123 25.0195 10.3894 24.5805 10.571C24.1415 10.7527 23.671 10.846 23.1959 10.8457C22.6213 10.8482 22.0547 10.712 21.544 10.4487C21.0333 10.1853 20.5938 9.80261 20.2627 9.33304C20.8898 8.30246 21.2219 7.11952 21.2229 5.91317C21.2238 5.38083 21.1575 4.85051 21.0256 4.33476C21.563 3.93171 22.202 3.68627 22.8711 3.62595C23.5401 3.56562 24.2127 3.69279 24.8135 3.9932C25.4144 4.29362 25.9197 4.75542 26.2728 5.32684C26.626 5.89827 26.8131 6.55675 26.8131 7.2285Z" fill="url(#paint4_linear_2923_523)"/>
<path d="M14.6464 10.8474C17.3705 10.8474 19.5789 8.63908 19.5789 5.91493C19.5789 3.19078 17.3705 0.982422 14.6464 0.982422C11.9222 0.982422 9.71387 3.19078 9.71387 5.91493C9.71387 8.63908 11.9222 10.8474 14.6464 10.8474Z" fill="url(#paint5_linear_2923_523)"/>
</g>
<defs>
<linearGradient id="paint0_linear_2923_523" x1="6.11078" y1="21.3909" x2="24.5067" y2="17.6246" gradientUnits="userSpaceOnUse">
<stop offset="0.0361276" stop-color="#FAEC60"/>
<stop offset="0.159651" stop-color="#E5A34B"/>
<stop offset="0.269837" stop-color="#EE6E4D"/>
<stop offset="0.42316" stop-color="#F44380"/>
<stop offset="0.55979" stop-color="#BE3DB3"/>
<stop offset="0.745252" stop-color="#7746E6"/>
<stop offset="0.888441" stop-color="#5A71F1"/>
<stop offset="1" stop-color="#439EFF"/>
</linearGradient>
<linearGradient id="paint1_linear_2923_523" x1="-0.0287066" y1="18.2688" x2="10.2127" y2="16.5872" gradientUnits="userSpaceOnUse">
<stop offset="0.0361276" stop-color="#FAEC60"/>
<stop offset="0.159651" stop-color="#E5A34B"/>
<stop offset="0.269837" stop-color="#EE6E4D"/>
<stop offset="0.42316" stop-color="#F44380"/>
<stop offset="0.55979" stop-color="#BE3DB3"/>
<stop offset="0.745252" stop-color="#7746E6"/>
<stop offset="0.888441" stop-color="#5A71F1"/>
<stop offset="1" stop-color="#439EFF"/>
</linearGradient>
<linearGradient id="paint2_linear_2923_523" x1="19.9518" y1="18.2688" x2="30.1932" y2="16.5872" gradientUnits="userSpaceOnUse">
<stop offset="0.0361276" stop-color="#FAEC60"/>
<stop offset="0.159651" stop-color="#E5A34B"/>
<stop offset="0.269837" stop-color="#EE6E4D"/>
<stop offset="0.42316" stop-color="#F44380"/>
<stop offset="0.55979" stop-color="#BE3DB3"/>
<stop offset="0.745252" stop-color="#7746E6"/>
<stop offset="0.888441" stop-color="#5A71F1"/>
<stop offset="1" stop-color="#439EFF"/>
</linearGradient>
<linearGradient id="paint3_linear_2923_523" x1="2.05863" y1="9.3354" x2="10.1681" y2="8.09361" gradientUnits="userSpaceOnUse">
<stop offset="0.0361276" stop-color="#FAEC60"/>
<stop offset="0.159651" stop-color="#E5A34B"/>
<stop offset="0.269837" stop-color="#EE6E4D"/>
<stop offset="0.42316" stop-color="#F44380"/>
<stop offset="0.55979" stop-color="#BE3DB3"/>
<stop offset="0.745252" stop-color="#7746E6"/>
<stop offset="0.888441" stop-color="#5A71F1"/>
<stop offset="1" stop-color="#439EFF"/>
</linearGradient>
<linearGradient id="paint4_linear_2923_523" x1="19.8409" y1="9.3354" x2="27.9503" y2="8.09361" gradientUnits="userSpaceOnUse">
<stop offset="0.0361276" stop-color="#FAEC60"/>
<stop offset="0.159651" stop-color="#E5A34B"/>
<stop offset="0.269837" stop-color="#EE6E4D"/>
<stop offset="0.42316" stop-color="#F44380"/>
<stop offset="0.55979" stop-color="#BE3DB3"/>
<stop offset="0.745252" stop-color="#7746E6"/>
<stop offset="0.888441" stop-color="#5A71F1"/>
<stop offset="1" stop-color="#439EFF"/>
</linearGradient>
<linearGradient id="paint5_linear_2923_523" x1="9.07857" y1="8.78794" x2="21.2304" y2="6.73283" gradientUnits="userSpaceOnUse">
<stop offset="0.0361276" stop-color="#FAEC60"/>
<stop offset="0.159651" stop-color="#E5A34B"/>
<stop offset="0.269837" stop-color="#EE6E4D"/>
<stop offset="0.42316" stop-color="#F44380"/>
<stop offset="0.55979" stop-color="#BE3DB3"/>
<stop offset="0.745252" stop-color="#7746E6"/>
<stop offset="0.888441" stop-color="#5A71F1"/>
<stop offset="1" stop-color="#439EFF"/>
</linearGradient>
</defs>
</svg>
