<svg width="27" height="27" viewBox="0 0 27 27" fill="none" xmlns="http://www.w3.org/2000/svg">
<g clip-path="url(#clip0_2955_674)">
<path d="M26.5124 12.2793L24.4978 10.0887C24.149 9.70951 23.6538 9.49219 23.1386 9.49219H15.953V1.8457C15.953 0.827888 15.1247 0 14.1067 0H13.0515C12.0333 0 11.2052 0.827888 11.2052 1.8457V3.16406H3.84054C3.34843 3.16406 2.86846 3.36532 2.52363 3.71613L0.529815 5.74413C-0.159851 6.44595 -0.178597 7.56285 0.487587 8.28712L2.5022 10.4777C2.85075 10.8569 3.34616 11.0742 3.86135 11.0742H11.2052V25.1543C11.2052 26.1721 12.0335 27 13.0515 27H14.1067C15.1247 27 15.953 26.1721 15.953 25.1543V17.4023H23.1595C23.6516 17.4023 24.1315 17.2011 24.4764 16.8503L26.4702 14.8223C27.1598 14.1205 27.1784 13.0036 26.5124 12.2793ZM11.1525 9.49219H3.86135C3.78781 9.49219 3.71695 9.46108 3.6671 9.40691L1.65248 7.21637C1.55752 7.11296 1.55999 6.95332 1.65866 6.853L3.65227 4.82499C3.70171 4.77493 3.7703 4.74609 3.84054 4.74609H11.1525V9.49219ZM14.1067 25.418H13.0515C12.9061 25.418 12.7879 25.2997 12.7879 25.1543V1.8457C12.7879 1.70027 12.9061 1.58203 13.0515 1.58203H14.1067C14.2521 1.58203 14.3703 1.70027 14.3703 1.8457V25.1543C14.3703 25.2997 14.2521 25.418 14.1067 25.418ZM25.3413 13.7134L23.3475 15.7414C23.2983 15.7915 23.2297 15.8203 23.1595 15.8203H15.953V11.0742H23.1386C23.2122 11.0742 23.283 11.1053 23.3329 11.1595L25.3475 13.35C25.4425 13.4534 25.44 13.6131 25.3413 13.7134Z" fill="white"/>
</g>
<defs>
<clipPath id="clip0_2955_674">
<rect width="27" height="27" fill="white"/>
</clipPath>
</defs>
</svg>
