<svg width="46" height="36" viewBox="0 0 46 36" fill="none" xmlns="http://www.w3.org/2000/svg">
<path d="M42.1666 0.75H3.83336C1.71916 0.75 0 2.46916 0 4.58336V31.4167C0 33.5308 1.71916 35.25 3.83336 35.25H42.1667C44.2808 35.25 46 33.5308 46 31.4166V4.58336C46 2.46916 44.2808 0.75 42.1666 0.75ZM3.83336 2.66664H42.1667C42.308 2.66664 42.4324 2.71812 42.5649 2.74723C39.2462 5.78457 28.2418 15.8517 24.3908 19.3214C24.0894 19.5928 23.6038 19.9166 23.0001 19.9166C22.3964 19.9166 21.9107 19.5928 21.6084 19.3205C17.7578 15.8514 6.75275 5.78368 3.43455 2.74741C3.56734 2.7183 3.69204 2.66664 3.83336 2.66664ZM1.91664 31.4166V4.58336C1.91664 4.39559 1.97324 4.22525 2.02391 4.05364C4.56397 6.37844 12.2424 13.4028 17.2212 17.9303C12.2586 22.1931 4.57817 29.4748 2.01789 31.9162C1.9727 31.7532 1.91664 31.5938 1.91664 31.4166ZM42.1666 33.3334H3.83336C3.68027 33.3334 3.54416 33.28 3.40121 33.2459C6.04684 30.7238 13.7761 23.4002 18.6515 19.2294C19.287 19.8059 19.8676 20.3316 20.3253 20.744C21.1152 21.4572 22.0397 21.8334 23 21.8334C23.9603 21.8334 24.8848 21.4571 25.6738 20.7449C26.1316 20.3323 26.7126 19.8062 27.3485 19.2294C32.2242 23.3998 39.9523 30.7228 42.5988 33.2459C42.4558 33.28 42.3199 33.3334 42.1666 33.3334ZM44.0834 31.4166C44.0834 31.5937 44.0273 31.7532 43.9822 31.9162C41.4209 29.4735 33.7414 22.1926 28.7789 17.9304C33.7579 13.4029 41.4351 6.37916 43.9761 4.05346C44.0268 4.22507 44.0834 4.3955 44.0834 4.58327V31.4166Z" fill="url(#paint0_linear_2955_717)"/>
<defs>
<linearGradient id="paint0_linear_2955_717" x1="-8" y1="3.5" x2="13.8901" y2="38.8076" gradientUnits="userSpaceOnUse">
<stop stop-color="#C8BDFF"/>
<stop offset="0.0677083" stop-color="#BAA6FF"/>
<stop offset="0.453455" stop-color="#6721FF"/>
<stop offset="1" stop-color="#00CBFF"/>
</linearGradient>
</defs>
</svg>
