<svg width="58" height="54" viewBox="0 0 58 54" fill="none" xmlns="http://www.w3.org/2000/svg">
<path d="M46.6472 0.292969C44.8181 0.292969 13.372 0.292969 11.3558 0.292969L0.258789 15.4251L29.1191 53.4627L57.741 15.4208L46.6472 0.292969ZM16.0362 17.0876L24.1673 41.3794L5.73629 17.0876H16.0362ZM19.5784 17.0876H38.4345L29.0712 45.4477L19.5784 17.0876ZM41.9719 17.0876H52.2836L33.9086 41.51L41.9719 17.0876ZM44.9449 3.65189L52.3345 13.7287H41.9741L38.6677 3.65189H44.9449ZM35.1326 3.65189L38.439 13.7287H19.5639L22.8703 3.65189H35.1326ZM13.0578 3.65189H19.335L16.0286 13.7287H5.66822L13.0578 3.65189Z" fill="white"/>
</svg>
