<svg width="140" height="1592" viewBox="0 0 140 1592" fill="none" xmlns="http://www.w3.org/2000/svg">
<path fill-rule="evenodd" clip-rule="evenodd" d="M65.2805 36.1433C76.6373 57.8272 79.4175 84.7926 78.5001 103.013V270H78.0505L78.5005 270.003C78.1465 322.758 78.4831 422.762 78.6807 481.444L78.6807 481.451L78.6807 481.456C78.7063 489.062 78.7296 495.974 78.7487 501.999L78.7488 502.03L78.7451 502.061C78.0042 508.152 78.7766 517.122 83.4543 524.251C88.1034 531.337 96.6659 536.69 111.709 535.502C121.333 534.742 128.332 537.591 132.85 542.262C137.359 546.923 139.347 553.346 139.061 559.648C138.774 565.949 136.213 572.174 131.564 576.447C126.902 580.731 120.179 583.018 111.661 581.492C101.527 579.677 94.4063 580.37 89.4127 582.627C84.4377 584.875 81.511 588.704 79.8132 593.311C78.1093 597.935 77.6487 603.33 77.6215 608.664C77.6079 611.327 77.7022 613.964 77.8003 616.474L77.8263 617.134C77.9155 619.397 78.0004 621.551 78.0005 623.5L78.0001 827.997C78.3912 886.283 78.0225 1002.24 77.8501 1056.43L77.8389 1059.97C78.5917 1066.21 77.8087 1075.42 72.9693 1082.8C68.0934 1090.23 59.1559 1095.71 43.7994 1094.5C34.4235 1093.76 27.7346 1096.53 23.4559 1100.96C19.1678 1105.39 17.2497 1111.53 17.5257 1117.6C17.8018 1123.68 20.2713 1129.64 24.7005 1133.71C29.1169 1137.77 35.5188 1139.98 43.7506 1138.51C53.9897 1136.67 61.2923 1137.34 66.472 1139.72C71.6716 1142.1 74.6659 1146.17 76.3415 1150.97C78.0111 1155.76 78.3776 1161.3 78.3346 1166.67C78.3131 1169.35 78.1887 1172.01 78.0701 1174.52L78.0664 1174.59C78.0438 1175.07 78.0214 1175.55 78.0001 1176.01V1592H77.0001V1181.5H76.8388C76.8388 1179.8 76.9109 1177.94 77.0001 1175.99V1175H77.0462L77.0669 1174.56L77.0712 1174.47C77.1899 1171.96 77.3133 1169.32 77.3347 1166.66C77.3774 1161.32 77.0091 1155.93 75.3972 1151.3C73.7913 1146.7 70.9573 1142.87 66.0555 1140.63C61.1338 1138.37 54.0619 1137.68 43.9269 1139.49C35.4088 1141.02 28.6856 1138.73 24.0238 1134.45C19.3749 1130.17 16.8132 1123.95 16.5268 1117.65C16.2403 1111.35 18.2285 1104.92 22.7372 1100.26C27.2555 1095.59 34.254 1092.74 43.8781 1093.5C58.9216 1094.69 67.4841 1089.34 72.1332 1082.25C76.8109 1075.12 77.5833 1066.15 76.8424 1060.06L76.8387 1060.03L76.8388 1060L76.8501 1056.43C77.0225 1002.23 77.3912 886.285 77.0001 828.003L77.5001 828H77.0001L77.0005 623.5C77.0004 621.572 76.9163 619.438 76.8269 617.17L76.8011 616.513C76.7029 614.003 76.6078 611.346 76.6215 608.659C76.6489 603.289 77.1101 597.754 78.8749 592.965C80.6456 588.16 83.7343 584.096 89.0009 581.716C94.2491 579.344 101.597 578.674 111.837 580.508C120.069 581.982 126.471 579.769 130.887 575.71C135.316 571.639 137.786 565.676 138.062 559.603C138.338 553.53 136.42 547.39 132.132 542.957C127.853 538.534 121.164 535.759 111.788 536.499C96.4316 537.711 87.4941 532.231 82.6182 524.8C77.7788 517.424 76.9958 508.212 77.7486 501.971C77.7297 496.006 77.7067 489.172 77.6814 481.657L77.681 481.529L77.6807 481.46V481.457C77.4832 422.778 77.1464 322.764 77.5005 270H77.5001V103V102.988L77.5007 102.975C78.4146 84.8623 75.6435 58.0851 64.3946 36.6073C58.7736 25.875 51.0455 16.4839 40.62 10.1463C30.1995 3.81174 17.0501 0.506844 0.545058 1.99826L0.455064 1.00232C17.1501 -0.506266 30.5173 2.83467 41.1395 9.29179C51.7567 15.7459 59.5973 25.2923 65.2805 36.1433Z" fill="url(#paint0_linear_2750_412)"/>
<defs>
<linearGradient id="paint0_linear_2750_412" x1="70.0016" y1="1592" x2="841.633" y2="556.505" gradientUnits="userSpaceOnUse">
<stop stop-color="#C8BDFF" stop-opacity="0"/>
<stop offset="0.197836" stop-color="#BAA6FF" stop-opacity="0.41"/>
<stop offset="0.453455" stop-color="#6721FF"/>
<stop offset="0.944712" stop-color="#00CBFF" stop-opacity="0.01"/>
</linearGradient>
</defs>
</svg>
