<svg width="39" height="39" viewBox="0 0 39 39" fill="none" xmlns="http://www.w3.org/2000/svg">
<g clip-path="url(#clip0_2923_2102)">
<path d="M38.4707 30.1626L35.407 26.0473V8.76808C35.407 6.45989 33.5292 4.58203 31.221 4.58203H7.77907C5.47088 4.58203 3.59302 6.45989 3.59302 8.76808V26.0473L0.529363 30.1626C-0.0757876 30.9756 -0.169175 32.0432 0.285735 32.9488C0.740569 33.8545 1.65275 34.4172 2.66615 34.4172H36.3338C37.3472 34.4172 38.2595 33.8546 38.7142 32.9488C39.1692 32.0432 39.0758 30.9756 38.4707 30.1626ZM5.87632 8.76808C5.87632 7.71891 6.7299 6.86533 7.77907 6.86533H31.221C32.2701 6.86533 33.1237 7.71891 33.1237 8.76808V25.284H5.87632V8.76808ZM36.6739 31.9241C36.6346 32.0024 36.5382 32.1339 36.3339 32.1339H2.66615C2.46187 32.1339 2.36544 32.0024 2.32609 31.9241C2.28667 31.8458 2.23887 31.6898 2.36088 31.526L5.30801 27.5673H33.692L36.6392 31.526C36.7611 31.6899 36.7133 31.8458 36.6739 31.9241Z" fill="#160042"/>
<path d="M22.621 9.14941H16.3799C15.7494 9.14941 15.2383 9.66057 15.2383 10.2911C15.2383 10.9216 15.7494 11.4327 16.3799 11.4327H22.621C23.2515 11.4327 23.7626 10.9216 23.7626 10.2911C23.7626 9.66057 23.2515 9.14941 22.621 9.14941Z" fill="#160042"/>
</g>
<defs>
<clipPath id="clip0_2923_2102">
<rect width="39" height="39" fill="white"/>
</clipPath>
</defs>
</svg>
