<svg width="28" height="18" viewBox="0 0 28 18" fill="none" xmlns="http://www.w3.org/2000/svg">
<g opacity="0.5">
<path d="M15.8388 0.773438H3.06439C1.37951 0.773438 0.000976562 2.15197 0.000976562 3.83685V14.1605C0.000976562 15.8454 1.37951 17.2239 3.06439 17.2239H15.8388C17.5237 17.2239 18.9022 15.8454 18.9022 14.1605V3.83685C18.9022 2.12134 17.5237 0.773438 15.8388 0.773438Z" fill="url(#paint0_linear_2923_494)"/>
<path d="M25.7333 2.4595C25.5495 2.49013 25.3657 2.58204 25.2125 2.67394L20.4336 5.431V12.5381L25.2431 15.2952C26.1315 15.816 27.2344 15.5096 27.7551 14.6212C27.9083 14.3455 28.0002 14.0392 28.0002 13.7022V4.23628C28.0002 3.10281 26.928 2.18379 25.7333 2.4595Z" fill="url(#paint1_linear_2923_494)"/>
</g>
<defs>
<linearGradient id="paint0_linear_2923_494" x1="-6.49181" y1="14.0607" x2="19.5257" y2="13.5903" gradientUnits="userSpaceOnUse">
<stop offset="0.0361276" stop-color="#FAEC60"/>
<stop offset="0.159651" stop-color="#E5A34B"/>
<stop offset="0.269837" stop-color="#EE6E4D"/>
<stop offset="0.42316" stop-color="#F44380"/>
<stop offset="0.55979" stop-color="#BE3DB3"/>
<stop offset="0.745252" stop-color="#7746E6"/>
<stop offset="0.888441" stop-color="#5A71F1"/>
<stop offset="1" stop-color="#439EFF"/>
</linearGradient>
<linearGradient id="paint1_linear_2923_494" x1="17.8344" y1="13.0229" x2="28.2523" y2="12.9284" gradientUnits="userSpaceOnUse">
<stop offset="0.0361276" stop-color="#FAEC60"/>
<stop offset="0.159651" stop-color="#E5A34B"/>
<stop offset="0.269837" stop-color="#EE6E4D"/>
<stop offset="0.42316" stop-color="#F44380"/>
<stop offset="0.55979" stop-color="#BE3DB3"/>
<stop offset="0.745252" stop-color="#7746E6"/>
<stop offset="0.888441" stop-color="#5A71F1"/>
<stop offset="1" stop-color="#439EFF"/>
</linearGradient>
</defs>
</svg>
