<svg width="26" height="26" viewBox="0 0 26 26" fill="none" xmlns="http://www.w3.org/2000/svg">
<path fill-rule="evenodd" clip-rule="evenodd" d="M0 9.78588C0 9.26287 0.423998 8.83887 0.947015 8.83887H24.9381C25.4611 8.83887 25.8851 9.26287 25.8851 9.78588V23.6754C25.8851 24.8958 24.8958 25.8851 23.6754 25.8851H2.2097C0.989328 25.8851 0 24.8958 0 23.6754V9.78588ZM1.89403 10.7329V23.6754C1.89403 23.8498 2.03535 23.9911 2.2097 23.9911H23.6754C23.8498 23.9911 23.9911 23.8498 23.9911 23.6754V10.7329H1.89403Z" fill="white"/>
<path fill-rule="evenodd" clip-rule="evenodd" d="M2.2097 3.78759C2.03536 3.78759 1.89403 3.92892 1.89403 4.10326V8.83834H23.9911V4.10326C23.9911 3.92891 23.8498 3.78759 23.6754 3.78759H2.2097ZM0 4.10326C0 2.88287 0.989315 1.89355 2.2097 1.89355H23.6754C24.8958 1.89355 25.8851 2.88288 25.8851 4.10326V9.78535C25.8851 10.3084 25.4611 10.7324 24.9381 10.7324H0.947015C0.423998 10.7324 0 10.3084 0 9.78535V4.10326Z" fill="white"/>
<path fill-rule="evenodd" clip-rule="evenodd" d="M19.9261 12.9043C20.296 13.2742 20.296 13.8737 19.9261 14.2435L12.35 21.8197C11.9801 22.1895 11.3806 22.1895 11.0108 21.8197L7.22268 18.0316C6.85286 17.6618 6.85286 17.0622 7.22268 16.6924C7.59251 16.3226 8.19214 16.3226 8.56197 16.6924L11.6804 19.8107L18.5869 12.9043C18.9567 12.5345 19.5563 12.5345 19.9261 12.9043Z" fill="white"/>
<path fill-rule="evenodd" clip-rule="evenodd" d="M7.89233 0C8.41535 0 8.83934 0.423998 8.83934 0.947016V5.99776C8.83934 6.52078 8.41535 6.94478 7.89233 6.94478C7.36931 6.94478 6.94531 6.52078 6.94531 5.99776V0.947016C6.94531 0.423998 7.36931 0 7.89233 0Z" fill="white"/>
<path fill-rule="evenodd" clip-rule="evenodd" d="M17.9939 0C18.5169 0 18.9409 0.423998 18.9409 0.947016V5.99776C18.9409 6.52078 18.5169 6.94478 17.9939 6.94478C17.4709 6.94478 17.0469 6.52078 17.0469 5.99776V0.947016C17.0469 0.423998 17.4709 0 17.9939 0Z" fill="white"/>
</svg>
