<svg width="25" height="25" viewBox="0 0 25 25" fill="none" xmlns="http://www.w3.org/2000/svg">
<path d="M4.90625 21.0938H20.0918C21.7072 21.0938 23.0215 19.7795 23.0215 18.1641V2.92969C23.0215 1.31426 21.7072 0 20.0918 0H4.90625C3.29082 0 1.97656 1.31426 1.97656 2.92969V22.0703C1.97656 23.6857 3.29082 25 4.90625 25H19.1152H20.0918C21.7072 25 23.0215 23.6857 23.0215 22.0703V22.0679C22.2048 22.6823 21.1901 23.0469 20.0918 23.0469H19.1152H4.90625C4.36777 23.0469 3.92969 22.6088 3.92969 22.0703C3.92969 21.5318 4.36777 21.0938 4.90625 21.0938ZM3.92969 2.92969C3.92969 2.39121 4.36777 1.95312 4.90625 1.95312H20.0918C20.6303 1.95312 21.0684 2.39121 21.0684 2.92969V18.1641C21.0684 18.7025 20.6303 19.1406 20.0918 19.1406H4.90625C4.56401 19.1406 4.23525 19.1996 3.92969 19.308V2.92969ZM10.8633 8.23145H8.91016C8.91016 7.22959 9.33955 6.27065 10.0883 5.60039C10.8468 4.92129 11.8672 4.59668 12.8881 4.71006C14.5235 4.89155 15.8404 6.20503 16.0194 7.8333C16.1826 9.31836 15.3117 10.384 14.6424 11.0563C14.4702 11.2294 14.3112 11.381 14.1709 11.5148C13.5328 12.1234 13.4515 12.2258 13.4515 12.6463V12.6953H11.4983V12.6462C11.4983 11.3646 12.1122 10.7792 12.823 10.1014C12.9611 9.96968 13.1039 9.8335 13.2582 9.67847C13.8889 9.04482 14.1341 8.55684 14.078 8.04668C13.998 7.31963 13.4071 6.73276 12.6727 6.65127C12.1968 6.59863 11.7414 6.74199 11.391 7.05566C11.0507 7.36025 10.8633 7.77783 10.8633 8.23145ZM11.498 14.1602H13.4512V16.1133H11.498V14.1602Z" fill="white"/>
</svg>
