<svg width="28" height="29" viewBox="0 0 28 29" fill="none" xmlns="http://www.w3.org/2000/svg">
<path d="M27.0156 5.96875L23.7344 9.25C23.2969 9.6875 22.6406 9.6875 22.2031 9.25C21.7656 8.8125 21.7656 8.15625 22.2031 7.71875L23.625 6.29688H6.28906C4.32031 6.29688 2.73438 7.88281 2.73438 9.85156C2.73438 11.8203 4.32031 13.4062 6.28906 13.4062H21.0547C24.2266 13.4062 26.7969 15.9766 26.7969 19.1484C26.7969 22.3203 24.2266 24.8906 21.0547 24.8906H8.58594C8.09375 26.75 6.39844 28.1719 4.375 28.1719C1.96875 28.1719 0 26.2031 0 23.7969C0 21.3906 1.96875 19.4219 4.375 19.4219C6.39844 19.4219 8.09375 20.8438 8.58594 22.7031H21.0547C23.0234 22.7031 24.6094 21.1172 24.6094 19.1484C24.6094 17.1797 23.0234 15.5938 21.0547 15.5938H6.28906C3.11719 15.5938 0.546875 13.0234 0.546875 9.85156C0.546875 6.67969 3.11719 4.10938 6.28906 4.10938H23.625L22.2031 2.6875C21.7656 2.25 21.7656 1.59375 22.2031 1.15625C22.4219 0.9375 22.6953 0.828125 22.9688 0.828125C23.2422 0.828125 23.5156 0.9375 23.7344 1.15625L27.0156 4.4375C27.4531 4.875 27.4531 5.53125 27.0156 5.96875ZM4.375 21.6094C3.17188 21.6094 2.1875 22.5938 2.1875 23.7969C2.1875 25 3.17188 25.9844 4.375 25.9844C5.57812 25.9844 6.5625 25 6.5625 23.7969C6.5625 22.5938 5.57812 21.6094 4.375 21.6094Z" fill="white"/>
</svg>
