<svg width="38" height="38" viewBox="0 0 38 38" fill="none" xmlns="http://www.w3.org/2000/svg">
<path fill-rule="evenodd" clip-rule="evenodd" d="M32.2092 5.73488C35.2408 8.7665 37.2137 12.5761 37.9275 16.7626C38.0318 17.3481 37.6308 17.9095 37.0453 17.9977C37.0388 17.9985 37.0325 17.9993 37.0261 18.0001C36.9698 18.0073 36.9185 18.0137 36.8609 18.0137C36.3395 18.0137 35.8824 17.6448 35.7942 17.1155C35.1606 13.3781 33.3961 9.96953 30.6853 7.25871C27.9745 4.55592 24.5659 2.78346 20.8286 2.14987C20.2351 2.04561 19.8421 1.49222 19.9383 0.898724C20.0426 0.313253 20.596 -0.0877554 21.1814 0.0165067C25.368 0.730301 29.1775 2.70326 32.2092 5.73488ZM30.0043 23.5399C29.2264 22.7299 28.288 22.2968 27.2935 22.2968C26.307 22.2968 25.3607 22.7218 24.5506 23.5319L22.0163 26.0582C21.8785 25.984 21.7407 25.9133 21.6052 25.8438L21.6051 25.8438C21.5356 25.8081 21.4667 25.7728 21.3987 25.7374C21.11 25.5931 20.8373 25.4567 20.6047 25.3123C18.2307 23.8046 16.0733 21.8396 14.0041 19.2972C13.0016 18.03 12.3279 16.9634 11.8387 15.8806C12.4329 15.3372 12.9878 14.774 13.5271 14.2268L13.6994 14.052C13.8116 13.9398 13.9239 13.8255 14.0362 13.7112C14.1485 13.5969 14.2608 13.4826 14.373 13.3703C16.0573 11.6861 16.0573 9.50461 14.373 7.82037L12.1835 5.63087L12.1835 5.63085L12.1834 5.63076C11.9348 5.38217 11.6782 5.12556 11.4377 4.86896C10.9565 4.37171 10.4512 3.85842 9.92988 3.37721C9.15192 2.60727 8.22159 2.19824 7.24313 2.19824C6.26467 2.19824 5.31829 2.60727 4.51627 3.37721L4.50023 3.39325L1.77338 6.14416C0.746796 7.17074 0.161324 8.42189 0.0330018 9.87354C-0.159482 12.2154 0.530252 14.3969 1.05958 15.8245C2.35885 19.3293 4.29973 22.5775 7.195 26.0582C10.7078 30.2528 14.9345 33.5651 19.7626 35.899C21.6072 36.7732 24.0694 37.8078 26.8203 37.9842C26.9888 37.9922 27.1652 38.0002 27.3256 38.0002C29.1783 38.0002 30.7342 37.3346 31.9532 36.0112C31.9573 36.0032 31.9633 35.9972 31.9693 35.9912C31.9753 35.9852 31.9813 35.9792 31.9853 35.9711C32.3715 35.5033 32.8127 35.0767 33.277 34.6277L33.3889 34.5195C33.7337 34.1907 34.0866 33.8458 34.4315 33.4849C35.2255 32.6588 35.6425 31.6964 35.6425 30.7099C35.6425 29.7154 35.2174 28.761 34.4074 27.959L30.0043 23.5399ZM32.8756 31.9851C32.6187 32.2617 32.3565 32.5167 32.0799 32.7855C32.0197 32.8441 31.9588 32.9033 31.8971 32.9636C31.3758 33.4608 30.8465 33.9821 30.3492 34.5676C29.5392 35.4338 28.5848 35.8428 27.3336 35.8428C27.2133 35.8428 27.085 35.8428 26.9647 35.8348C24.5827 35.6824 22.3691 34.7521 20.709 33.9581C16.1696 31.7606 12.1835 28.6407 8.87122 24.6868C6.13634 21.3905 4.30775 18.3428 3.0967 15.0706C2.35083 13.0736 2.07814 11.5177 2.19845 10.05C2.27865 9.11162 2.63955 8.33366 3.30523 7.66799L6.0401 4.93312C6.43309 4.56419 6.85014 4.36369 7.25917 4.36369C7.76444 4.36369 8.17346 4.66845 8.43011 4.9251L8.45417 4.94916C8.9434 5.40631 9.40857 5.8795 9.8978 6.38477C10.0231 6.51409 10.1504 6.64341 10.2787 6.77376C10.4051 6.90209 10.5324 7.03142 10.6597 7.16272L12.8492 9.35223C13.6994 10.2024 13.6994 10.9883 12.8492 11.8385C12.7714 11.9163 12.6945 11.9941 12.6178 12.0716C12.4655 12.2258 12.3142 12.3788 12.1595 12.5282C11.4858 13.2179 10.8442 13.8596 10.1464 14.4851C10.1407 14.4908 10.1351 14.4955 10.1297 14.4999C10.12 14.5079 10.1115 14.5149 10.1063 14.5252C9.41659 15.215 9.54491 15.8887 9.68927 16.3458L9.71334 16.418C10.2828 17.7975 11.0848 19.0967 12.3038 20.6446L12.3119 20.6526C14.5254 23.3795 16.8593 25.5048 19.4338 27.1329C19.7626 27.3414 20.0994 27.5099 20.4202 27.6703C20.709 27.8146 20.9817 27.951 21.2142 28.0953C21.2303 28.1034 21.2463 28.1134 21.2624 28.1234C21.2784 28.1334 21.2944 28.1435 21.3105 28.1515C21.5832 28.2878 21.8398 28.352 22.1045 28.352C22.7702 28.352 23.1872 27.9349 23.3235 27.7986L26.0664 25.0557C26.3391 24.783 26.7722 24.4542 27.2775 24.4542C27.7747 24.4542 28.1838 24.767 28.4324 25.0397L28.4484 25.0557L32.8675 29.4748C33.6936 30.2929 33.6936 31.135 32.8756 31.9851ZM20.5084 9.03946C22.6097 9.39235 24.5185 10.3868 26.0423 11.9107C27.5661 13.4345 28.5526 15.3433 28.9135 17.4446C29.0018 17.9739 29.4589 18.3428 29.9802 18.3428C30.0379 18.3428 30.0891 18.3364 30.1455 18.3292L30.1647 18.3268C30.7582 18.2306 31.1512 17.6692 31.0549 17.0757C30.6218 14.5333 29.4188 12.2154 27.5822 10.3788C25.7456 8.54221 23.4277 7.33919 20.8854 6.9061C20.2919 6.80985 19.7385 7.20284 19.6342 7.78831C19.5299 8.37379 19.9149 8.94322 20.5084 9.03946Z" fill="url(#paint0_linear_2955_706)"/>
<defs>
<linearGradient id="paint0_linear_2955_706" x1="-2.52734" y1="5.5" x2="3.96943" y2="35.763" gradientUnits="userSpaceOnUse">
<stop stop-color="#C8BDFF"/>
<stop offset="0.0677083" stop-color="#BAA6FF"/>
<stop offset="0.453455" stop-color="#6721FF"/>
<stop offset="1" stop-color="#00CBFF"/>
</linearGradient>
</defs>
</svg>
