<svg width="20" height="20" viewBox="0 0 20 20" fill="none" xmlns="http://www.w3.org/2000/svg">
<path fill-rule="evenodd" clip-rule="evenodd" d="M19.013 6.28113V16.0498C19.013 16.7281 18.7432 17.3793 18.264 17.8594C17.784 18.3385 17.1327 18.6083 16.4545 18.6083H3.42956C2.75134 18.6083 2.10009 18.3385 1.62003 17.8594C1.1409 17.3793 0.871094 16.7281 0.871094 16.0498V6.28113C0.871094 5.6029 1.1409 4.95165 1.62003 4.47159C2.10009 3.99246 2.75134 3.72266 3.42956 3.72266H16.4545C17.1327 3.72266 17.784 3.99246 18.264 4.47159C18.7432 4.95165 19.013 5.6029 19.013 6.28113ZM5.29027 13.2588C5.29027 13.6439 5.60287 13.9565 5.98803 13.9565C6.3732 13.9565 6.6858 13.6439 6.6858 13.2588V12.0958H8.08133V13.2588C8.08133 13.6439 8.39392 13.9565 8.77909 13.9565C9.16426 13.9565 9.47685 13.6439 9.47685 13.2588V10.4677C9.47685 9.31128 8.53999 8.37442 7.38356 8.37442C6.22713 8.37442 5.29027 9.31128 5.29027 10.4677V13.2588ZM8.08133 10.7003H6.6858V10.4677C6.6858 10.0825 6.9984 9.76995 7.38356 9.76995C7.76873 9.76995 8.08133 10.0825 8.08133 10.4677V10.7003ZM10.4072 13.2588C10.4072 13.6439 10.7198 13.9565 11.105 13.9565H12.5005C13.6569 13.9565 14.5938 13.0197 14.5938 11.8632V10.4677C14.5938 9.31128 13.6569 8.37442 12.5005 8.37442H11.105C10.7198 8.37442 10.4072 8.68702 10.4072 9.07218V13.2588ZM11.8027 12.561V9.76995H12.5005C12.8857 9.76995 13.1983 10.0825 13.1983 10.4677V11.8632C13.1983 12.2484 12.8857 12.561 12.5005 12.561H11.8027Z" fill="#160042"/>
<path fill-rule="evenodd" clip-rule="evenodd" d="M6.59241 1.11615C6.36168 0.808205 6.42401 0.370009 6.73196 0.139281C7.03991 -0.0914461 7.4781 -0.0291125 7.70883 0.278834L9.94168 3.25596L12.1745 0.278834C12.4052 -0.0291125 12.8434 -0.0914461 13.1514 0.139281C13.4593 0.370009 13.5217 0.808205 13.2909 1.11615L10.4999 4.83756C10.3678 5.0134 10.1612 5.11667 9.94168 5.11667C9.72211 5.11667 9.51557 5.0134 9.38346 4.83756L6.59241 1.11615Z" fill="#160042"/>
<path fill-rule="evenodd" clip-rule="evenodd" d="M15.7549 19.3023C15.7549 19.6874 15.4423 20 15.0571 20C14.672 20 14.3594 19.6874 14.3594 19.3023V17.9067C14.3594 17.5216 14.672 17.209 15.0571 17.209C15.4423 17.209 15.7549 17.5216 15.7549 17.9067V19.3023Z" fill="#160042"/>
<path fill-rule="evenodd" clip-rule="evenodd" d="M5.52248 19.3023C5.52248 19.6874 5.20988 20 4.82472 20C4.43955 20 4.12695 19.6874 4.12695 19.3023V17.9067C4.12695 17.5216 4.43955 17.209 4.82472 17.209C5.20988 17.209 5.52248 17.5216 5.52248 17.9067V19.3023Z" fill="#160042"/>
</svg>
