<svg width="43" height="43" viewBox="0 0 43 43" fill="none" xmlns="http://www.w3.org/2000/svg">
<path d="M5.30506 40.9998C7.13039 40.9998 8.61011 39.52 8.61011 37.6947C8.61011 35.8694 7.13039 34.3896 5.30506 34.3896C3.47972 34.3896 2 35.8694 2 37.6947C2 39.52 3.47972 40.9998 5.30506 40.9998Z" stroke="#F0F0F0" stroke-width="3.5" stroke-miterlimit="10" stroke-linecap="round" stroke-linejoin="round"/>
<path d="M37.6957 40.9998C39.521 40.9998 41.0007 39.52 41.0007 37.6947C41.0007 35.8694 39.521 34.3896 37.6957 34.3896C35.8703 34.3896 34.3906 35.8694 34.3906 37.6947C34.3906 39.52 35.8703 40.9998 37.6957 40.9998Z" stroke="#F0F0F0" stroke-width="3.5" stroke-miterlimit="10" stroke-linecap="round" stroke-linejoin="round"/>
<path d="M14.8908 25.1367V32.7383C14.8908 34.3012 13.8059 35.6108 12.3482 35.955L8.52344 36.9362" stroke="#F0F0F0" stroke-width="3.5" stroke-miterlimit="10" stroke-linecap="round" stroke-linejoin="round"/>
<path d="M34.4773 36.9349L30.6525 35.9537C29.1948 35.6095 28.1099 34.2999 28.1099 32.737V25.1354H34.3896C38.0402 25.1354 40.9997 22.1759 40.9997 18.5253C40.9997 14.8744 38.3707 11.9152 34.7201 11.9152C34.7201 8.27953 31.7454 5.30506 28.1099 5.30506C27.3167 5.30506 26.5895 5.43718 25.8956 5.70166C24.1107 3.45423 21.3346 2 18.1948 2C12.7085 2 8.27961 6.42869 8.27961 11.9152C4.62901 11.9152 2 14.8747 2 18.5253C2 22.1759 4.95951 25.1354 8.61011 25.1354H21.4998" stroke="#F0F0F0" stroke-width="3.5" stroke-miterlimit="10" stroke-linecap="round" stroke-linejoin="round"/>
<path d="M21.5 31.085V41.0001" stroke="#F0F0F0" stroke-width="3.5" stroke-miterlimit="10" stroke-linecap="round" stroke-linejoin="round"/>
</svg>
