<svg width="45" height="44" viewBox="0 0 45 44" fill="none" xmlns="http://www.w3.org/2000/svg">
<path d="M22.0581 0.730469C17.8044 0.730469 13.6462 1.9779 10.1093 4.31503C6.57243 6.65216 3.81578 9.974 2.18794 13.8605C0.5601 17.747 0.134183 22.0236 0.964049 26.1495C1.79391 30.2754 3.84229 34.0652 6.85015 37.0398C9.85801 40.0144 13.6903 42.0402 17.8623 42.8608C22.0343 43.6815 26.3587 43.2603 30.2887 41.6505C34.2186 40.0406 37.5776 37.3145 39.9409 33.8167C42.3041 30.319 43.5655 26.2067 43.5655 22C43.5591 16.3609 41.291 10.9546 37.259 6.96722C33.227 2.97979 27.7603 0.736849 22.0581 0.730469ZM22.0581 40.4336C19.0973 40.4336 15.9974 36.659 14.4589 30.5078H29.6574C28.1189 36.659 25.019 40.4336 22.0581 40.4336ZM13.8767 27.6719C13.3147 23.9111 13.3147 20.0889 13.8767 16.3281H30.2395C30.5239 18.2056 30.6648 20.1016 30.6611 22C30.6648 23.8984 30.5239 25.7944 30.2395 27.6719H13.8767ZM3.41844 22C3.41948 20.0738 3.72722 18.1597 4.33035 16.3281H10.9976C10.4509 20.09 10.4509 23.91 10.9976 27.6719H4.33035C3.72722 25.8403 3.41948 23.9262 3.41844 22ZM22.0581 3.56641C25.019 3.56641 28.1189 7.34104 29.6574 13.4922H14.4589C15.9974 7.34104 19.0973 3.56641 22.0581 3.56641ZM33.1187 16.3281H39.7859C41.0015 20.0138 41.0015 23.9862 39.7859 27.6719H33.1187C33.3906 25.7932 33.5276 23.8978 33.5287 22C33.5276 20.1022 33.3906 18.2068 33.1187 16.3281ZM38.5772 13.4922H32.6025C31.9644 10.4081 30.7133 7.48011 28.9219 4.87803C33.0773 6.51692 36.5023 9.5726 38.5772 13.4922ZM15.1944 4.87803C13.403 7.48011 12.1519 10.4081 11.5138 13.4922H5.53906C7.61398 9.5726 11.039 6.51692 15.1944 4.87803ZM5.53906 30.5078H11.5138C12.1519 33.5919 13.403 36.5199 15.1944 39.122C11.039 37.4831 7.61398 34.4274 5.53906 30.5078ZM28.9219 39.122C30.7133 36.5199 31.9644 33.5919 32.6025 30.5078H38.5772C36.5023 34.4274 33.0773 37.4831 28.9219 39.122Z" fill="#F0F0F0"/>
</svg>
