<svg width="40" height="42" viewBox="0 0 40 42" fill="none" xmlns="http://www.w3.org/2000/svg">
<path d="M35.2266 42H4.84462C2.21094 42 0.0703125 39.8423 0.0703125 37.1875V4.8125C0.0703125 2.15775 2.21094 0 4.84462 0H31.7543C32.4731 0 33.0564 0.588 33.0564 1.3125V7H35.2266C35.9453 7 36.5286 7.588 36.5286 8.3125V40.6875C36.5286 41.412 35.9453 42 35.2266 42ZM2.67448 9.09825V37.1875C2.67448 38.3932 3.64844 39.375 4.84462 39.375H33.9245V9.625H4.84462C4.06337 9.625 3.32552 9.436 2.67448 9.09825ZM4.84462 2.625C3.64844 2.625 2.67448 3.60675 2.67448 4.8125C2.67448 6.01825 3.64844 7 4.84462 7H30.4523V2.625H4.84462Z" fill="#F0F0F0"/>
<path d="M19.6005 33.25C19.3626 33.25 19.1283 33.1853 18.9164 33.0558L13.9581 29.9793L8.99978 33.0558C8.59701 33.306 8.09527 33.3148 7.68034 33.0838C7.26714 32.851 7.01367 32.4118 7.01367 31.9375V8.3125H9.61784V29.589L13.2741 27.321C13.6942 27.062 14.2203 27.062 14.6404 27.321L18.2967 29.589V8.3125H20.9026V31.9375C20.9026 32.4118 20.6491 32.851 20.2359 33.0838C20.038 33.194 19.8192 33.25 19.6005 33.25Z" fill="#F0F0F0"/>
</svg>
