<svg width="44" height="43" viewBox="0 0 44 43" fill="none" xmlns="http://www.w3.org/2000/svg">
<path d="M15.061 25.1341H5.80697C3.98169 25.1341 2.50195 23.6544 2.50195 21.8291V15.2191C2.50195 13.3938 3.98169 11.9141 5.80697 11.9141H15.061V25.1341Z" stroke="#F0F0F0" stroke-width="3.5" stroke-miterlimit="10" stroke-linecap="round" stroke-linejoin="round"/>
<path d="M15.0605 11.9151C28.2806 11.9151 34.8907 2 34.8907 2C34.8907 2 34.729 35.0502 34.8907 35.0502C34.8907 35.0502 28.2806 25.1351 15.0605 25.1351" stroke="#F0F0F0" stroke-width="3.5" stroke-miterlimit="10" stroke-linecap="round" stroke-linejoin="round"/>
<path d="M2.50195 18.5254H5.80697" stroke="#F0F0F0" stroke-width="3.5" stroke-miterlimit="10" stroke-linecap="round" stroke-linejoin="round"/>
<path d="M15.061 25.1344L17.3939 37.0468C17.5658 37.9061 17.3892 38.7986 16.9031 39.5278C16.4169 40.2569 15.6611 40.7631 14.8007 40.9351C13.0113 41.2929 11.2706 40.1324 10.9129 38.343L8.32031 25.1318" stroke="#F0F0F0" stroke-width="3.5" stroke-miterlimit="10" stroke-linecap="round" stroke-linejoin="round"/>
<path d="M34.8887 15.2207H38.1937C40.019 15.2207 41.4987 16.7004 41.4987 18.5257C41.4987 20.351 40.019 21.8307 38.1937 21.8307H34.8887" stroke="#F0F0F0" stroke-width="3.5" stroke-miterlimit="10" stroke-linecap="round" stroke-linejoin="round"/>
</svg>
