<svg width="41" height="42" viewBox="0 0 41 42" fill="none" xmlns="http://www.w3.org/2000/svg">
<path d="M27.7505 5.10188C26.8683 4.71494 25.8406 5.11927 25.4552 6.00497C25.0698 6.89067 25.4725 7.9223 26.3548 8.30925C32.0266 10.7968 35.7704 16.4285 35.7704 22.7497C35.7704 31.4479 28.7454 38.4999 20.0815 38.4999C11.4165 38.4999 4.39262 31.4486 4.39262 22.7497C4.39262 16.4299 8.13507 10.7982 13.8053 8.309C14.6874 7.92181 15.0898 6.89002 14.7041 6.00448C14.3184 5.11895 13.2906 4.71494 12.4085 5.10221C5.48014 8.14354 0.90625 15.0265 0.90625 22.7497C0.90625 33.3815 9.4911 41.9998 20.0816 41.9998C30.6709 41.9998 39.2569 33.3809 39.2569 22.7497C39.2569 15.0247 34.6812 8.14141 27.7505 5.10188Z" fill="#F0F0F0"/>
<path d="M20.0811 19.2502C21.0438 19.2502 21.8243 18.4667 21.8243 17.5002V1.75007C21.8243 0.783486 21.0438 0 20.0811 0C19.1183 0 18.3379 0.783487 18.3379 1.74999V17.5001C18.3379 18.4666 19.1183 19.2502 20.0811 19.2502Z" fill="#F0F0F0"/>
</svg>
