<svg width="50" height="50" viewBox="0 0 50 50" fill="none" xmlns="http://www.w3.org/2000/svg">
<path d="M20.7062 16.3665C19.6708 15.7477 18.3438 16.4956 18.3438 17.7081V32.2915C18.3438 33.5102 19.6729 34.2477 20.7062 33.6352L32.9333 26.354C33.95 25.7477 33.9479 24.2769 32.9354 23.6686L20.7062 16.3665ZM21.4688 29.5436V20.4602L29.0833 25.0082L21.4688 29.5436Z" fill="#F0F0F0"/>
<path d="M41.4667 6.81504C31.7729 5.37546 18.2313 5.37546 8.53333 6.81504C4.65417 7.39004 1.59792 10.4359 0.93125 14.39C-0.310417 21.7296 -0.310417 28.2734 0.93125 35.6109C1.59792 39.5671 4.65417 42.6109 8.53333 43.1859C13.3917 43.9067 19.2083 44.2671 25.0229 44.2671C30.8271 44.2671 36.6292 43.9088 41.4688 43.188C45.3438 42.613 48.3979 39.5692 49.0687 35.613C50.3104 28.2734 50.3104 21.7275 49.0687 14.388C48.4021 10.4359 45.3458 7.39004 41.4667 6.81504ZM45.9875 35.0921C45.5437 37.7088 43.5437 39.7213 41.0083 40.0963C31.5958 41.4942 18.4292 41.4942 8.99167 40.0942C6.45417 39.7171 4.45208 37.7067 4.01042 35.09C2.81458 28.0192 2.81458 21.9838 4.01042 14.9088C4.45417 12.2921 6.45417 10.2838 8.99375 9.90462C13.7062 9.20671 19.3542 8.85671 24.9979 8.85671C30.6458 8.85671 36.2938 9.20671 41.0062 9.90462C43.5438 10.2817 45.5458 12.2921 45.9875 14.9088C47.1833 21.9838 47.1833 28.0192 45.9875 35.0921Z" fill="#F0F0F0"/>
</svg>
